<?xml version="1.0" encoding="UTF-8" standalone="no"?>
<!DOCTYPE svg PUBLIC "-//W3C//DTD SVG 1.1//EN"
 "http://www.w3.org/Graphics/SVG/1.1/DTD/svg11.dtd">
<!-- Generated by graphviz version 2.49.0 (20210829.0051)
 -->
<!-- Title: snakemake_dag Pages: 1 -->
<svg width="541pt" height="836pt"
 viewBox="0.00 0.00 541.00 836.00" xmlns="http://www.w3.org/2000/svg" xmlns:xlink="http://www.w3.org/1999/xlink">
<g id="graph0" class="graph" transform="scale(1 1) rotate(0) translate(4 832)">
<title>snakemake_dag</title>
<polygon fill="white" stroke="transparent" points="-4,4 -4,-832 537,-832 537,4 -4,4"/>
<!-- 0 -->
<g id="node1" class="node">
<title>0</title>
<path fill="none" stroke="#56a9d8" stroke-width="2" d="M228,-36C228,-36 198,-36 198,-36 192,-36 186,-30 186,-24 186,-24 186,-12 186,-12 186,-6 192,0 198,0 198,0 228,0 228,0 234,0 240,-6 240,-12 240,-12 240,-24 240,-24 240,-30 234,-36 228,-36"/>
<text text-anchor="middle" x="213" y="-15.5" font-family="sans" font-size="10.00">all</text>
</g>
<!-- 1 -->
<g id="node2" class="node">
<title>1</title>
<path fill="none" stroke="#567bd8" stroke-width="2" d="M109,-828C109,-828 65,-828 65,-828 59,-828 53,-822 53,-816 53,-816 53,-804 53,-804 53,-798 59,-792 65,-792 65,-792 109,-792 109,-792 115,-792 121,-798 121,-804 121,-804 121,-816 121,-816 121,-822 115,-828 109,-828"/>
<text text-anchor="middle" x="87" y="-807.5" font-family="sans" font-size="10.00">trimgalore</text>
</g>
<!-- 1&#45;&gt;0 -->
<g id="edge11" class="edge">
<title>1&#45;&gt;0</title>
<path fill="none" stroke="grey" stroke-width="2" d="M67.69,-791.82C42.06,-767.01 0,-718.46 0,-667 0,-667 0,-667 0,-161 0,-115.41 15.65,-100.78 51,-72 87.24,-42.5 140.41,-29.23 175.84,-23.39"/>
<polygon fill="grey" stroke="grey" stroke-width="2" points="176.42,-26.84 185.78,-21.87 175.36,-19.92 176.42,-26.84"/>
</g>
<!-- 2 -->
<g id="node3" class="node">
<title>2</title>
<path fill="none" stroke="#d8a456" stroke-width="2" d="M102,-756C102,-756 72,-756 72,-756 66,-756 60,-750 60,-744 60,-744 60,-732 60,-732 60,-726 66,-720 72,-720 72,-720 102,-720 102,-720 108,-720 114,-726 114,-732 114,-732 114,-744 114,-744 114,-750 108,-756 102,-756"/>
<text text-anchor="middle" x="87" y="-735.5" font-family="sans" font-size="10.00">bwa</text>
</g>
<!-- 1&#45;&gt;2 -->
<g id="edge12" class="edge">
<title>1&#45;&gt;2</title>
<path fill="none" stroke="grey" stroke-width="2" d="M87,-791.7C87,-783.98 87,-774.71 87,-766.11"/>
<polygon fill="grey" stroke="grey" stroke-width="2" points="90.5,-766.1 87,-756.1 83.5,-766.1 90.5,-766.1"/>
</g>
<!-- 8 -->
<g id="node9" class="node">
<title>8</title>
<path fill="none" stroke="#d85656" stroke-width="2" d="M454.5,-324C454.5,-324 355.5,-324 355.5,-324 349.5,-324 343.5,-318 343.5,-312 343.5,-312 343.5,-300 343.5,-300 343.5,-294 349.5,-288 355.5,-288 355.5,-288 454.5,-288 454.5,-288 460.5,-288 466.5,-294 466.5,-300 466.5,-300 466.5,-312 466.5,-312 466.5,-318 460.5,-324 454.5,-324"/>
<text text-anchor="middle" x="405" y="-303.5" font-family="sans" font-size="10.00">bowtie2_viral_contigs</text>
</g>
<!-- 1&#45;&gt;8 -->
<g id="edge19" class="edge">
<title>1&#45;&gt;8</title>
<path fill="none" stroke="grey" stroke-width="2" d="M121.26,-805.57C225.69,-794.18 533,-753.34 533,-667 533,-667 533,-667 533,-449 533,-396 483.19,-353.86 445.71,-329.66"/>
<polygon fill="grey" stroke="grey" stroke-width="2" points="447.3,-326.53 436.97,-324.19 443.59,-332.46 447.3,-326.53"/>
</g>
<!-- 2&#45;&gt;0 -->
<g id="edge3" class="edge">
<title>2&#45;&gt;0</title>
<path fill="none" stroke="grey" stroke-width="2" d="M75.6,-719.99C69.3,-709.9 61.8,-696.65 57,-684 42.65,-646.18 38,-635.45 38,-595 38,-595 38,-595 38,-161 38,-114.73 57.19,-102.48 92,-72 116.22,-50.79 150.26,-36.91 176.07,-28.69"/>
<polygon fill="grey" stroke="grey" stroke-width="2" points="177.31,-31.97 185.87,-25.72 175.28,-25.27 177.31,-31.97"/>
</g>
<!-- 3 -->
<g id="node4" class="node">
<title>3</title>
<path fill="none" stroke="#d87d56" stroke-width="2" d="M162,-684C162,-684 78,-684 78,-684 72,-684 66,-678 66,-672 66,-672 66,-660 66,-660 66,-654 72,-648 78,-648 78,-648 162,-648 162,-648 168,-648 174,-654 174,-660 174,-660 174,-672 174,-672 174,-678 168,-684 162,-684"/>
<text text-anchor="middle" x="120" y="-663.5" font-family="sans" font-size="10.00">extract_unmapped</text>
</g>
<!-- 2&#45;&gt;3 -->
<g id="edge13" class="edge">
<title>2&#45;&gt;3</title>
<path fill="none" stroke="grey" stroke-width="2" d="M95.16,-719.7C98.91,-711.73 103.45,-702.1 107.62,-693.26"/>
<polygon fill="grey" stroke="grey" stroke-width="2" points="110.84,-694.64 111.94,-684.1 104.51,-691.66 110.84,-694.64"/>
</g>
<!-- 3&#45;&gt;0 -->
<g id="edge2" class="edge">
<title>3&#45;&gt;0</title>
<path fill="none" stroke="grey" stroke-width="2" d="M110.88,-647.61C98,-621.36 76,-569.71 76,-523 76,-523 76,-523 76,-161 76,-102.72 136.51,-59.19 177.1,-36.54"/>
<polygon fill="grey" stroke="grey" stroke-width="2" points="178.8,-39.6 185.93,-31.76 175.47,-33.44 178.8,-39.6"/>
</g>
<!-- 4 -->
<g id="node5" class="node">
<title>4</title>
<path fill="none" stroke="#b6d856" stroke-width="2" d="M287,-612C287,-612 257,-612 257,-612 251,-612 245,-606 245,-600 245,-600 245,-588 245,-588 245,-582 251,-576 257,-576 257,-576 287,-576 287,-576 293,-576 299,-582 299,-588 299,-588 299,-600 299,-600 299,-606 293,-612 287,-612"/>
<text text-anchor="middle" x="272" y="-591.5" font-family="sans" font-size="10.00">spades</text>
</g>
<!-- 3&#45;&gt;4 -->
<g id="edge14" class="edge">
<title>3&#45;&gt;4</title>
<path fill="none" stroke="grey" stroke-width="2" d="M157.18,-647.88C180.98,-636.92 211.7,-622.77 235.39,-611.86"/>
<polygon fill="grey" stroke="grey" stroke-width="2" points="237.12,-614.92 244.73,-607.56 234.19,-608.56 237.12,-614.92"/>
</g>
<!-- 4&#45;&gt;0 -->
<g id="edge5" class="edge">
<title>4&#45;&gt;0</title>
<path fill="none" stroke="grey" stroke-width="2" d="M299.34,-588.77C358.89,-577.83 495,-542.8 495,-451 495,-451 495,-451 495,-161 495,-115.19 479.9,-99.15 443,-72 385.34,-29.58 299.28,-20.38 250.42,-18.81"/>
<polygon fill="grey" stroke="grey" stroke-width="2" points="250.37,-15.3 240.3,-18.57 250.21,-22.3 250.37,-15.3"/>
</g>
<!-- 5 -->
<g id="node6" class="node">
<title>5</title>
<path fill="none" stroke="#56d892" stroke-width="2" d="M245.5,-540C245.5,-540 210.5,-540 210.5,-540 204.5,-540 198.5,-534 198.5,-528 198.5,-528 198.5,-516 198.5,-516 198.5,-510 204.5,-504 210.5,-504 210.5,-504 245.5,-504 245.5,-504 251.5,-504 257.5,-510 257.5,-516 257.5,-516 257.5,-528 257.5,-528 257.5,-534 251.5,-540 245.5,-540"/>
<text text-anchor="middle" x="228" y="-519.5" font-family="sans" font-size="10.00">diamond</text>
</g>
<!-- 4&#45;&gt;5 -->
<g id="edge15" class="edge">
<title>4&#45;&gt;5</title>
<path fill="none" stroke="grey" stroke-width="2" d="M261.12,-575.7C256.01,-567.56 249.8,-557.69 244.16,-548.7"/>
<polygon fill="grey" stroke="grey" stroke-width="2" points="247.04,-546.71 238.75,-540.1 241.11,-550.43 247.04,-546.71"/>
</g>
<!-- 9 -->
<g id="node10" class="node">
<title>9</title>
<path fill="none" stroke="#56d0d8" stroke-width="2" d="M406.5,-396C406.5,-396 311.5,-396 311.5,-396 305.5,-396 299.5,-390 299.5,-384 299.5,-384 299.5,-372 299.5,-372 299.5,-366 305.5,-360 311.5,-360 311.5,-360 406.5,-360 406.5,-360 412.5,-360 418.5,-366 418.5,-372 418.5,-372 418.5,-384 418.5,-384 418.5,-390 412.5,-396 406.5,-396"/>
<text text-anchor="middle" x="359" y="-375.5" font-family="sans" font-size="10.00">extract_viral_contigs</text>
</g>
<!-- 4&#45;&gt;9 -->
<g id="edge20" class="edge">
<title>4&#45;&gt;9</title>
<path fill="none" stroke="grey" stroke-width="2" d="M282.62,-575.81C296.78,-552.25 321.8,-508.28 337,-468 344.62,-447.8 350.34,-424.03 354.04,-406.13"/>
<polygon fill="grey" stroke="grey" stroke-width="2" points="357.52,-406.58 356.03,-396.09 350.65,-405.22 357.52,-406.58"/>
</g>
<!-- 5&#45;&gt;0 -->
<g id="edge9" class="edge">
<title>5&#45;&gt;0</title>
<path fill="none" stroke="grey" stroke-width="2" d="M218.46,-503.93C213.36,-493.82 207.61,-480.57 205,-468 201.75,-452.33 204.85,-448 205,-432 206.41,-286.63 210.6,-112.52 212.29,-46.34"/>
<polygon fill="grey" stroke="grey" stroke-width="2" points="215.79,-46.4 212.54,-36.31 208.79,-46.22 215.79,-46.4"/>
</g>
<!-- 6 -->
<g id="node7" class="node">
<title>6</title>
<path fill="none" stroke="#68d856" stroke-width="2" d="M316,-468C316,-468 226,-468 226,-468 220,-468 214,-462 214,-456 214,-456 214,-444 214,-444 214,-438 220,-432 226,-432 226,-432 316,-432 316,-432 322,-432 328,-438 328,-444 328,-444 328,-456 328,-456 328,-462 322,-468 316,-468"/>
<text text-anchor="middle" x="271" y="-447.5" font-family="sans" font-size="10.00">get_viral_contig_ids</text>
</g>
<!-- 5&#45;&gt;6 -->
<g id="edge16" class="edge">
<title>5&#45;&gt;6</title>
<path fill="none" stroke="grey" stroke-width="2" d="M238.63,-503.7C243.63,-495.56 249.69,-485.69 255.21,-476.7"/>
<polygon fill="grey" stroke="grey" stroke-width="2" points="258.24,-478.46 260.49,-468.1 252.28,-474.79 258.24,-478.46"/>
</g>
<!-- 7 -->
<g id="node8" class="node">
<title>7</title>
<path fill="none" stroke="#8fd856" stroke-width="2" d="M146,-396C146,-396 116,-396 116,-396 110,-396 104,-390 104,-384 104,-384 104,-372 104,-372 104,-366 110,-360 116,-360 116,-360 146,-360 146,-360 152,-360 158,-366 158,-372 158,-372 158,-384 158,-384 158,-390 152,-396 146,-396"/>
<text text-anchor="middle" x="131" y="-375.5" font-family="sans" font-size="10.00">krona</text>
</g>
<!-- 5&#45;&gt;7 -->
<g id="edge17" class="edge">
<title>5&#45;&gt;7</title>
<path fill="none" stroke="grey" stroke-width="2" d="M206.13,-503.78C194.9,-494.14 181.6,-481.38 172,-468 158.19,-448.76 147.28,-424.12 140.19,-405.65"/>
<polygon fill="grey" stroke="grey" stroke-width="2" points="143.41,-404.26 136.66,-396.1 136.85,-406.69 143.41,-404.26"/>
</g>
<!-- 6&#45;&gt;0 -->
<g id="edge7" class="edge">
<title>6&#45;&gt;0</title>
<path fill="none" stroke="grey" stroke-width="2" d="M268.69,-431.88C259.78,-365.8 227.58,-127.08 216.65,-46.1"/>
<polygon fill="grey" stroke="grey" stroke-width="2" points="220.12,-45.61 215.32,-36.17 213.18,-46.55 220.12,-45.61"/>
</g>
<!-- 6&#45;&gt;9 -->
<g id="edge21" class="edge">
<title>6&#45;&gt;9</title>
<path fill="none" stroke="grey" stroke-width="2" d="M292.75,-431.7C303.84,-422.88 317.47,-412.03 329.49,-402.47"/>
<polygon fill="grey" stroke="grey" stroke-width="2" points="331.85,-405.07 337.5,-396.1 327.49,-399.59 331.85,-405.07"/>
</g>
<!-- 12 -->
<g id="node13" class="node">
<title>12</title>
<path fill="none" stroke="#d8cb56" stroke-width="2" d="M340,-180C340,-180 256,-180 256,-180 250,-180 244,-174 244,-168 244,-168 244,-156 244,-156 244,-150 250,-144 256,-144 256,-144 340,-144 340,-144 346,-144 352,-150 352,-156 352,-156 352,-168 352,-168 352,-174 346,-180 340,-180"/>
<text text-anchor="middle" x="298" y="-159.5" font-family="sans" font-size="10.00">collate_virus_stats</text>
</g>
<!-- 6&#45;&gt;12 -->
<g id="edge25" class="edge">
<title>6&#45;&gt;12</title>
<path fill="none" stroke="grey" stroke-width="2" d="M272.61,-431.97C277.12,-384.19 289.92,-248.62 295.43,-190.27"/>
<polygon fill="grey" stroke="grey" stroke-width="2" points="298.91,-190.59 296.37,-180.31 291.94,-189.93 298.91,-190.59"/>
</g>
<!-- 7&#45;&gt;0 -->
<g id="edge6" class="edge">
<title>7&#45;&gt;0</title>
<path fill="none" stroke="grey" stroke-width="2" d="M131.2,-359.95C131.49,-333.29 132,-280.12 132,-235 132,-235 132,-235 132,-161 132,-119.4 139.42,-107.57 161,-72 167.36,-61.52 176.18,-51.51 184.74,-43.06"/>
<polygon fill="grey" stroke="grey" stroke-width="2" points="187.27,-45.49 192.14,-36.08 182.47,-40.4 187.27,-45.49"/>
</g>
<!-- 8&#45;&gt;0 -->
<g id="edge1" class="edge">
<title>8&#45;&gt;0</title>
<path fill="none" stroke="grey" stroke-width="2" d="M413.02,-287.84C431.27,-245.96 470.58,-137.16 420,-72 399.37,-45.42 304.03,-29.9 250.23,-23.11"/>
<polygon fill="grey" stroke="grey" stroke-width="2" points="250.41,-19.6 240.05,-21.86 249.56,-26.55 250.41,-19.6"/>
</g>
<!-- 10 -->
<g id="node11" class="node">
<title>10</title>
<path fill="none" stroke="#56d8b9" stroke-width="2" d="M378.5,-252C378.5,-252 343.5,-252 343.5,-252 337.5,-252 331.5,-246 331.5,-240 331.5,-240 331.5,-228 331.5,-228 331.5,-222 337.5,-216 343.5,-216 343.5,-216 378.5,-216 378.5,-216 384.5,-216 390.5,-222 390.5,-228 390.5,-228 390.5,-240 390.5,-240 390.5,-246 384.5,-252 378.5,-252"/>
<text text-anchor="middle" x="361" y="-231.5" font-family="sans" font-size="10.00">weeSAM</text>
</g>
<!-- 8&#45;&gt;10 -->
<g id="edge22" class="edge">
<title>8&#45;&gt;10</title>
<path fill="none" stroke="grey" stroke-width="2" d="M394.12,-287.7C389.01,-279.56 382.8,-269.69 377.16,-260.7"/>
<polygon fill="grey" stroke="grey" stroke-width="2" points="380.04,-258.71 371.75,-252.1 374.11,-262.43 380.04,-258.71"/>
</g>
<!-- 11 -->
<g id="node12" class="node">
<title>11</title>
<path fill="none" stroke="#56d86b" stroke-width="2" d="M379,-108C379,-108 291,-108 291,-108 285,-108 279,-102 279,-96 279,-96 279,-84 279,-84 279,-78 285,-72 291,-72 291,-72 379,-72 379,-72 385,-72 391,-78 391,-84 391,-84 391,-96 391,-96 391,-102 385,-108 379,-108"/>
<text text-anchor="middle" x="335" y="-87.5" font-family="sans" font-size="10.00">uniq_virus_mapped</text>
</g>
<!-- 8&#45;&gt;11 -->
<g id="edge23" class="edge">
<title>8&#45;&gt;11</title>
<path fill="none" stroke="grey" stroke-width="2" d="M406.14,-287.93C406.88,-269.76 406.68,-240.33 400,-216 389.96,-179.4 368.21,-141.24 352.63,-116.86"/>
<polygon fill="grey" stroke="grey" stroke-width="2" points="355.39,-114.69 347,-108.23 349.53,-118.51 355.39,-114.69"/>
</g>
<!-- 9&#45;&gt;8 -->
<g id="edge18" class="edge">
<title>9&#45;&gt;8</title>
<path fill="none" stroke="grey" stroke-width="2" d="M370.37,-359.7C375.72,-351.56 382.2,-341.69 388.11,-332.7"/>
<polygon fill="grey" stroke="grey" stroke-width="2" points="391.19,-334.38 393.76,-324.1 385.34,-330.54 391.19,-334.38"/>
</g>
<!-- 10&#45;&gt;0 -->
<g id="edge10" class="edge">
<title>10&#45;&gt;0</title>
<path fill="none" stroke="grey" stroke-width="2" d="M373.5,-215.86C394.91,-184.23 433.21,-115.93 400,-72 381.95,-48.13 299.13,-31.89 249.97,-24.17"/>
<polygon fill="grey" stroke="grey" stroke-width="2" points="250.44,-20.7 240.02,-22.65 249.38,-27.62 250.44,-20.7"/>
</g>
<!-- 10&#45;&gt;12 -->
<g id="edge26" class="edge">
<title>10&#45;&gt;12</title>
<path fill="none" stroke="grey" stroke-width="2" d="M345.43,-215.7C337.8,-207.22 328.48,-196.86 320.12,-187.58"/>
<polygon fill="grey" stroke="grey" stroke-width="2" points="322.69,-185.2 313.39,-180.1 317.48,-189.88 322.69,-185.2"/>
</g>
<!-- 11&#45;&gt;0 -->
<g id="edge8" class="edge">
<title>11&#45;&gt;0</title>
<path fill="none" stroke="grey" stroke-width="2" d="M305.16,-71.88C288.22,-62.16 266.89,-49.92 249.03,-39.67"/>
<polygon fill="grey" stroke="grey" stroke-width="2" points="250.45,-36.46 240.04,-34.51 246.97,-42.53 250.45,-36.46"/>
</g>
<!-- 12&#45;&gt;0 -->
<g id="edge4" class="edge">
<title>12&#45;&gt;0</title>
<path fill="none" stroke="grey" stroke-width="2" d="M287.75,-143.87C273.01,-119.24 245.71,-73.64 228.49,-44.88"/>
<polygon fill="grey" stroke="grey" stroke-width="2" points="231.43,-42.97 223.29,-36.19 225.42,-46.57 231.43,-42.97"/>
</g>
<!-- 12&#45;&gt;11 -->
<g id="edge24" class="edge">
<title>12&#45;&gt;11</title>
<path fill="none" stroke="grey" stroke-width="2" d="M307.15,-143.7C311.4,-135.64 316.56,-125.89 321.27,-116.98"/>
<polygon fill="grey" stroke="grey" stroke-width="2" points="324.38,-118.58 325.96,-108.1 318.19,-115.31 324.38,-118.58"/>
</g>
</g>
</svg>
